<?xml version="1.0" encoding="UTF-8" standalone="no"?>
<!-- Created with Inkscape (http://www.inkscape.org/) -->

<svg
        width="180mm"
        height="180mm"
        viewBox="0 0 180 180"
        version="1.1"
        id="svg5"
        xml:space="preserve"
        inkscape:version="1.2.1 (9c6d41e, 2022-07-14)"
        sodipodi:docname="appicon.svg"
        inkscape:export-filename="../src/main/resources/deploy/public/brand/appicon.png"
        inkscape:export-xdpi="25.4"
        inkscape:export-ydpi="25.4"
        xmlns:inkscape="http://www.inkscape.org/namespaces/inkscape"
        xmlns:sodipodi="http://sodipodi.sourceforge.net/DTD/sodipodi-0.dtd"
        xmlns="http://www.w3.org/2000/svg"
><sodipodi:namedview
     id="namedview7"
     pagecolor="#ffffff"
     bordercolor="#000000"
     borderopacity="0.25"
     inkscape:showpageshadow="2"
     inkscape:pageopacity="0.0"
     inkscape:pagecheckerboard="true"
     inkscape:deskcolor="#d1d1d1"
     inkscape:document-units="mm"
     showgrid="false"
     inkscape:zoom="0.2102413"
     inkscape:cx="297.27746"
     inkscape:cy="366.24583"
     inkscape:window-width="2560"
     inkscape:window-height="1302"
     inkscape:window-x="0"
     inkscape:window-y="25"
     inkscape:window-maximized="1"
     inkscape:current-layer="layer1" /><defs
     id="defs2" /><g
     inkscape:label="Layer 1"
     inkscape:groupmode="layer"
     id="layer1"><rect
       style="fill:#f4f1f1;fill-opacity:1;stroke:none;stroke-width:3.969;stroke-linecap:square;stroke-dasharray:none;paint-order:stroke fill markers"
       id="rect788"
       width="180"
       height="180"
       x="4.4408921e-16"
       y="4.4408921e-16"
       inkscape:export-filename="../src/main/resources/deploy/public/brand/appicon.png"
       inkscape:export-xdpi="25.4"
       inkscape:export-ydpi="25.4" /><circle
       style="fill:#cc0000;fill-opacity:1;stroke-width:0.661458;stroke-linecap:square"
       id="path408"
       cx="90"
       cy="90"
       r="71.708687" /><g
       aria-label="App"
       id="text2841"
       style="font-size:67.0991px;line-height:285.3;font-family:Lobster;-inkscape-font-specification:Lobster;text-align:center;text-anchor:middle;fill:#ffffff;stroke-width:3.96899;stroke-linecap:square;paint-order:stroke fill markers"><path
         d="m 62.986718,106.77477 5.143828,-24.343078 q -2.555532,-1.179477 -4.685142,-1.703688 -2.096847,-0.524212 -4.291984,-0.720792 -1.900267,4.095404 -3.505666,8.420151 -1.572635,4.324747 -2.752111,8.42015 -1.146713,4.062637 -1.801978,7.633837 -0.655264,3.57119 -0.655264,6.19225 0,1.6054 0.262105,2.42448 0.29487,0.85184 0.655265,1.31053 -1.343292,0 -2.915928,-0.13106 -1.539871,-0.13105 -2.915927,-0.81908 -1.343293,-0.65526 -2.260663,-2.09684 -0.884607,-1.44159 -0.884607,-4.06265 0,-2.2279 0.688027,-5.3404 0.720792,-3.112509 2.031321,-6.683702 1.310529,-3.603955 3.112507,-7.50278 1.801978,-3.931587 4.029877,-7.764886 -3.178033,0.19658 -5.209353,0.982897 -1.998558,0.753555 -2.653822,2.490006 0.262106,0 0.556975,0.688028 0.327632,0.655265 0.327632,1.408819 0,1.212239 -1.11395,1.93303 -1.081187,0.688028 -2.653822,0.688028 -0.884607,0 -1.638161,-0.229342 -0.753555,-0.262106 -1.310529,-0.720791 -0.556975,-0.491449 -0.884608,-1.21224 -0.327632,-0.753554 -0.327632,-1.736451 0,-1.703688 1.01566,-3.210797 1.048424,-1.507109 2.883165,-2.621058 1.83474,-1.11395 4.324746,-1.769215 2.522769,-0.655265 5.47146,-0.655265 1.376055,0 3.505666,0.19658 2.555532,-4.029878 5.405933,-7.60107 2.850401,-3.603955 5.864618,-6.29054 3.014217,-2.719349 6.061198,-4.291984 3.046981,-1.605398 5.995671,-1.605398 1.179477,0 2.621059,0.196579 1.474345,0.19658 2.686585,0.753555 L 72.651872,106.77477 Z m 9.665154,-45.573652 q -1.507109,0.81908 -3.079744,2.358952 -1.539872,1.507109 -3.079744,3.603956 -1.507109,2.064083 -3.014217,4.619615 -1.507109,2.522769 -2.915928,5.340407 2.03132,0.393159 4.128167,0.982897 2.096847,0.556975 4.062641,1.343293 z"
         style="stroke-width:3.969"
         id="path2867" /><path
         d="M 75.469508,123.54955 86.674533,70.735218 h 9.665153 l -1.081187,5.045538 q 1.474346,-1.245003 3.374613,-2.064084 1.900268,-0.819081 4.455798,-0.819081 1.70369,0 3.2108,0.556975 1.50711,0.524212 2.58829,1.769215 1.11395,1.212239 1.73646,3.24356 0.65526,2.03132 0.65526,5.012774 0,2.260663 -0.32763,4.914485 -0.29487,2.621058 -1.04843,5.27488 -0.75355,2.621059 -1.99855,5.078301 -1.21224,2.424479 -3.04698,4.291979 -1.83474,1.86751 -4.35751,3.01422 -2.490009,1.11395 -5.733569,1.11395 -1.277766,0 -2.2279,-0.19658 -0.950133,-0.19658 -1.638161,-0.52421 -0.655265,-0.32763 -1.11395,-0.75355 -0.425922,-0.45869 -0.720791,-0.91737 l -3.472903,16.34885 z M 90.147435,99.796204 q 0.19658,0.556976 0.786318,1.048426 0.622501,0.49145 1.769214,0.49145 1.769215,0 3.145271,-0.88461 1.376055,-0.917372 2.424479,-2.391717 1.048423,-1.507109 1.769213,-3.407376 0.72079,-1.900267 1.17948,-3.898825 0.45868,-1.998557 0.65526,-3.931587 0.22934,-1.965794 0.22934,-3.538429 0,-1.933031 -0.36039,-3.046981 -0.3604,-1.11395 -0.88461,-1.670925 -0.49145,-0.556975 -1.081185,-0.688028 -0.589738,-0.163816 -1.048423,-0.163816 -1.146713,0 -2.424479,0.851844 -1.245003,0.819081 -2.195137,2.457243 z"
         style="stroke-width:3.969"
         id="path2869" /><path
         d="m 106.85668,123.54955 11.20503,-52.814332 h 9.66515 l -1.08118,5.045538 q 1.47434,-1.245003 3.37461,-2.064084 1.90027,-0.819081 4.4558,-0.819081 1.70369,0 3.2108,0.556975 1.5071,0.524212 2.58829,1.769215 1.11395,1.212239 1.73645,3.24356 0.65527,2.03132 0.65527,5.012774 0,2.260663 -0.32764,4.914485 -0.29487,2.621058 -1.04842,5.27488 -0.75355,2.621059 -1.99856,5.078301 -1.21224,2.424479 -3.04698,4.291979 -1.83474,1.86751 -4.35751,3.01422 -2.49,1.11395 -5.73356,1.11395 -1.27777,0 -2.2279,-0.19658 -0.95014,-0.19658 -1.63816,-0.52421 -0.65527,-0.32763 -1.11395,-0.75355 -0.42593,-0.45869 -0.72079,-0.91737 l -3.47291,16.34885 z m 14.67793,-23.753346 q 0.19658,0.556976 0.78632,1.048426 0.6225,0.49145 1.76921,0.49145 1.76922,0 3.14527,-0.88461 1.37606,-0.917372 2.42448,-2.391717 1.04843,-1.507109 1.76922,-3.407376 0.72079,-1.900267 1.17947,-3.898825 0.45869,-1.998557 0.65527,-3.931587 0.22934,-1.965794 0.22934,-3.538429 0,-1.933031 -0.36039,-3.046981 -0.3604,-1.11395 -0.88461,-1.670925 -0.49145,-0.556975 -1.08119,-0.688028 -0.58974,-0.163816 -1.04842,-0.163816 -1.14671,0 -2.42448,0.851844 -1.245,0.819081 -2.19514,2.457243 z"
         style="stroke-width:3.969"
         id="path2871" /></g></g></svg>
