<?xml version="1.0" encoding="UTF-8" standalone="no"?>
<!-- Created with Inkscape (http://www.inkscape.org/) -->

<svg
   width="64mm"
   height="64mm"
   viewBox="0 0 64 64"
   version="1.1"
   id="svg5"
   xml:space="preserve"
   inkscape:version="1.2.1 (9c6d41e, 2022-07-14)"
   sodipodi:docname="favicon.svg"
   inkscape:export-filename="../src/main/resources/deploy/public/brand/favicon.png"
   inkscape:export-xdpi="25.4"
   inkscape:export-ydpi="25.4"
   xmlns:inkscape="http://www.inkscape.org/namespaces/inkscape"
   xmlns:sodipodi="http://sodipodi.sourceforge.net/DTD/sodipodi-0.dtd"
   xmlns="http://www.w3.org/2000/svg"
   xmlns:svg="http://www.w3.org/2000/svg"><sodipodi:namedview
     id="namedview7"
     pagecolor="#ffffff"
     bordercolor="#000000"
     borderopacity="0.25"
     inkscape:showpageshadow="2"
     inkscape:pageopacity="0.0"
     inkscape:pagecheckerboard="true"
     inkscape:deskcolor="#d1d1d1"
     inkscape:document-units="mm"
     showgrid="false"
     inkscape:zoom="0.5946522"
     inkscape:cx="-338.85353"
     inkscape:cy="134.53242"
     inkscape:window-width="2560"
     inkscape:window-height="1302"
     inkscape:window-x="0"
     inkscape:window-y="25"
     inkscape:window-maximized="1"
     inkscape:current-layer="layer1" /><defs
     id="defs2" /><g
     inkscape:label="Layer 1"
     inkscape:groupmode="layer"
     id="layer1"><circle
       style="fill:#cc0000;fill-opacity:1;stroke-width:0.661458;stroke-linecap:square"
       id="path408"
       cx="32"
       cy="32"
       r="31.999998" /><g
       aria-label="A"
       id="text2823"
       style="font-size:48.2934px;line-height:285.3;font-family:Lobster;-inkscape-font-specification:Lobster;text-align:center;text-anchor:middle;fill:#ffffff;stroke-width:3.96898;stroke-linecap:square;paint-order:stroke fill markers"><path
         d="m 33.968994,47.362865 3.70218,-17.520505 q -1.8393,-0.848908 -3.372049,-1.2262 -1.509169,-0.377292 -3.08908,-0.518777 -1.367684,2.947595 -2.523142,6.060256 -1.131876,3.11266 -1.980784,6.060256 -0.825326,2.924014 -1.296941,5.494317 -0.471616,2.570303 -0.471616,4.456764 0,1.155457 0.188646,1.744976 0.212227,0.6131 0.471616,0.943231 -0.966812,0 -2.098688,-0.09432 -1.108296,-0.09432 -2.098688,-0.589519 -0.966811,-0.471615 -1.627073,-1.509169 -0.63668,-1.037553 -0.63668,-2.924014 0,-1.603492 0.495196,-3.843665 0.518777,-2.240172 1.462007,-4.810475 0.943231,-2.593884 2.240172,-5.399994 1.296942,-2.829692 2.900434,-5.588641 -2.287334,0.141485 -3.749341,0.707423 -1.438426,0.542358 -1.910042,1.792138 0.188646,0 0.400873,0.495196 0.235808,0.471615 0.235808,1.013973 0,0.872488 -0.801746,1.391265 -0.778165,0.495196 -1.910042,0.495196 -0.63668,0 -1.179038,-0.165066 -0.542357,-0.188646 -0.94323,-0.518776 -0.400873,-0.353712 -0.636681,-0.872489 -0.235807,-0.542357 -0.235807,-1.24978 0,-1.2262 0.731003,-2.310915 0.754585,-1.084715 2.075107,-1.886461 1.320523,-0.801745 3.112661,-1.273361 1.815718,-0.471615 3.937987,-0.471615 0.990392,0 2.523141,0.141485 1.8393,-2.900434 3.890826,-5.470737 2.051526,-2.593884 4.220956,-4.527506 2.169431,-1.957204 4.362441,-3.08908 2.193011,-1.155457 4.31528,-1.155457 0.848907,0 1.886461,0.141484 1.061134,0.141485 1.933622,0.542358 l -7.569424,35.536207 z m 6.956325,-32.800839 q -1.084715,0.589519 -2.216592,1.697815 -1.108296,1.084715 -2.216592,2.593884 -1.084715,1.485588 -2.16943,3.324887 -1.084715,1.815719 -2.098687,3.843664 1.462007,0.282969 2.971176,0.707423 1.509168,0.400873 2.924014,0.966811 z"
         style="stroke-width:3.96902"
         id="path3061" /></g></g></svg>
